<svg id="Layer_1" data-name="Layer 1" xmlns="http://www.w3.org/2000/svg" xmlns:xlink="http://www.w3.org/1999/xlink" viewBox="300 830 1400 330"><defs><style>.cls-1{fill:#fff;}.cls-2{fill:url(#linear-gradient);}.cls-3{fill:url(#linear-gradient-2);}.cls-4{fill:url(#linear-gradient-3);}</style><linearGradient id="linear-gradient" x1="487.61" y1="792.65" x2="487.61" y2="1093.64" gradientUnits="userSpaceOnUse"><stop offset="0" stop-color="#89561f"/><stop offset="0.52" stop-color="#f7d7a6"/><stop offset="1" stop-color="#7f4c1f"/></linearGradient><linearGradient id="linear-gradient-2" x1="458.67" y1="792.65" x2="458.67" y2="1093.64" xlink:href="#linear-gradient"/><linearGradient id="linear-gradient-3" x1="494.86" y1="792.65" x2="494.86" y2="1093.64" xlink:href="#linear-gradient"/></defs><path class="cls-1" d="M600.88,964.72A47.28,47.28,0,0,1,604.13,947a41.63,41.63,0,0,1,9.29-14.16,43.15,43.15,0,0,1,14.29-9.43A47.5,47.5,0,0,1,645.84,920a59.85,59.85,0,0,1,16,2,57,57,0,0,1,12.6,5.06v19.24H673a44.46,44.46,0,0,0-6-12.22,25.37,25.37,0,0,0-8.84-7.8,26.55,26.55,0,0,0-12.48-2.73,27.42,27.42,0,0,0-16.05,4.94,33.13,33.13,0,0,0-11.17,14.23q-4.1,9.3-4.1,22.16,0,13.13,4.16,22.61A33.24,33.24,0,0,0,630.12,1002a29.64,29.64,0,0,0,17.15,5.07,27.41,27.41,0,0,0,12-2.41,21.55,21.55,0,0,0,8.39-7.21A38.27,38.27,0,0,0,673,985.65h1.43v18.19a33.47,33.47,0,0,1-11.95,5,71.85,71.85,0,0,1-15.86,1.63,52.29,52.29,0,0,1-18.19-3.06,40.52,40.52,0,0,1-24.11-23.32A51.13,51.13,0,0,1,600.88,964.72Z"/><path class="cls-1" d="M750.59,1010.47v-1.17q3-1.31,3.7-5.2t-2.4-11.31L729.8,939l-20,50.55a31.72,31.72,0,0,0-2.53,9.75,12,12,0,0,0,1,6.24,10,10,0,0,0,3.44,3.77v1.17H689.12v-1.17a24.12,24.12,0,0,0,7.54-6.31q3.63-4.35,7.27-12.93l29.37-68.61h1.56l30,72.38a48.55,48.55,0,0,0,5.46,10.2,21.9,21.9,0,0,0,5.85,5.27v1.17Zm-40.94-27v-3.38h40.16v3.38Z"/><path class="cls-1" d="M798,926.25a22.37,22.37,0,0,0-8.57,1.5,16.92,16.92,0,0,0-6.11,4.16,20.78,20.78,0,0,0-4,6.3,46.92,46.92,0,0,0-2.4,7.93h-1.43V922.87h72.39v23.27H846.5a42.78,42.78,0,0,0-2.47-7.93,21.94,21.94,0,0,0-4-6.3,17.29,17.29,0,0,0-6-4.16,21.83,21.83,0,0,0-8.58-1.5Zm7.41-2.47h12.09v72.13q0,6.24,1.23,9.16a7.91,7.91,0,0,0,4,4.23v1.17H800.23v-1.17a8,8,0,0,0,4-4.23q1.23-2.93,1.23-9.16Z"/><path class="cls-1" d="M881.71,937.43v58.48c0,4.16.42,7.21,1.24,9.16a7.9,7.9,0,0,0,4,4.23v1.17H864.43v-1.17a7.9,7.9,0,0,0,4-4.23q1.25-2.93,1.24-9.16V937.43q0-6.36-1.24-9.23a7.93,7.93,0,0,0-4-4.16v-1.17h22.48V924a7.93,7.93,0,0,0-4,4.16C882.13,930.11,881.71,933.19,881.71,937.43Zm-2.85,30.8v-3.38h51.07v3.38Zm60-30.8v58.48q0,6.24,1.3,9.16a8.28,8.28,0,0,0,3.89,4.23v1.17H921.61v-1.17a8.21,8.21,0,0,0,4-4.23q1.3-2.93,1.3-9.16V937.43q0-6.36-1.3-9.23a8.25,8.25,0,0,0-4-4.16v-1.17h22.48V924a8.32,8.32,0,0,0-3.89,4.16Q938.9,931.07,938.9,937.43Z"/><path class="cls-1" d="M986.07,924a6.74,6.74,0,0,0-2.6,2.93,8.73,8.73,0,0,0-.71,3.9,14.88,14.88,0,0,0,.91,4.55,33.36,33.36,0,0,0,2.27,5l16.5,28.33L1015.83,943a27.82,27.82,0,0,0,3-8.58,12.31,12.31,0,0,0-.59-6.43,7.51,7.51,0,0,0-3.7-4v-1.17h22.87V924a19.18,19.18,0,0,0-4.87,3.32,39.83,39.83,0,0,0-5.39,6.17q-2.87,3.9-6.5,10L999.2,981.62l-3-.13-24.05-42.11q-2.6-4.68-4.67-7.67a32.68,32.68,0,0,0-3.9-4.74,16.86,16.86,0,0,0-4.16-2.93v-1.17h26.64Zm6.37,46.66,12.08-.91v26.12c0,4.16.44,7.21,1.3,9.16a8.34,8.34,0,0,0,3.9,4.23v1.17H987.24v-1.17a7.6,7.6,0,0,0,4-4.23q1.17-2.93,1.17-9.16Z"/><path class="cls-1" d="M1110.05,937.43v73h-17.29v-1.17a7.93,7.93,0,0,0,4-4.29c.82-2,1.23-5,1.23-9.1V937.43q0-6.24-1.23-9.16a8,8,0,0,0-4-4.23v-1.17h22.48V924a7.93,7.93,0,0,0-4,4.23Q1110.05,931.2,1110.05,937.43Zm-3.77,73,3.77-13q0,5.07,2.53,7.34t8.25,2.28H1128q7.53,0,12.09-2.08a16,16,0,0,0,7.21-6.63,42.6,42.6,0,0,0,4.35-12h1.43v24.05Z"/><path class="cls-1" d="M1220.25,1010.47v-1.17q3-1.31,3.71-5.2t-2.41-11.31L1199.46,939l-20,50.55a32,32,0,0,0-2.53,9.75,12.12,12.12,0,0,0,1,6.24,10,10,0,0,0,3.44,3.77v1.17h-22.61v-1.17a24.12,24.12,0,0,0,7.54-6.31q3.63-4.35,7.28-12.93L1203,921.45h1.56l30,72.38A48.09,48.09,0,0,0,1240,1004a21.71,21.71,0,0,0,5.84,5.27v1.17Zm-40.94-27v-3.38h40.16v3.38Z"/><path class="cls-1" d="M1328,942.37l-1.3,68.1h-2L1268.34,940l.91,46.39q.26,9.75,2.72,14.49a15,15,0,0,0,5.85,6.57v1.17h-21.57v-1.17q3.38-1.69,5.78-6.76t2.54-14.43l.52-41.45a47.39,47.39,0,0,0-.91-11.31,20.4,20.4,0,0,0-2.93-7.08,14.87,14.87,0,0,0-4.48-4.23v-1.16h12.48l54.58,69.52-.26-48.34q-.13-8.84-2.41-13.58t-5.78-6.44v-1.16H1336v1.16q-3.37,1.69-5.58,6.57T1328,942.37Z"/><path class="cls-1" d="M1352.94,964.72a47.28,47.28,0,0,1,3.25-17.74,41.63,41.63,0,0,1,9.29-14.16,43.15,43.15,0,0,1,14.29-9.43A47.5,47.5,0,0,1,1397.9,920a59.85,59.85,0,0,1,16,2,57,57,0,0,1,12.6,5.06v19.24h-1.43a44.74,44.74,0,0,0-6-12.22,25.37,25.37,0,0,0-8.84-7.8,26.55,26.55,0,0,0-12.48-2.73,27.4,27.4,0,0,0-16,4.94,33.06,33.06,0,0,0-11.17,14.23q-4.1,9.3-4.1,22.16,0,13.13,4.16,22.61a33.24,33.24,0,0,0,11.57,14.56,29.64,29.64,0,0,0,17.15,5.07,27.41,27.41,0,0,0,12-2.41,21.45,21.45,0,0,0,8.38-7.21,38,38,0,0,0,5.33-11.82h1.43v18.19a33.47,33.47,0,0,1-12,5,71.92,71.92,0,0,1-15.86,1.63,52.29,52.29,0,0,1-18.19-3.06,40.52,40.52,0,0,1-24.11-23.32A50.94,50.94,0,0,1,1352.94,964.72Z"/><path class="cls-1" d="M1461.58,922.87v87.6H1444.3v-1.17a7.93,7.93,0,0,0,4-4.16c.82-1.91,1.24-5,1.24-9.23V937.43c0-4.24-.42-7.32-1.24-9.23a7.93,7.93,0,0,0-4-4.16v-1.17Zm-4.42,3.51v-3.51h46v18.72h-1.43a27.17,27.17,0,0,0-4.94-8.71,17.38,17.38,0,0,0-7.6-4.94,36.35,36.35,0,0,0-11.5-1.56Zm.13,40.42V965l17.81-.91q6.24-.26,9.29-3.25a18,18,0,0,0,4.48-8.7h1.3v27h-1.3a19.69,19.69,0,0,0-2.79-6.37,11,11,0,0,0-4.42-3.7,17.56,17.56,0,0,0-6.82-1.37Zm.52,43.67,3.77-13q0,5.07,2.47,7.34c1.64,1.52,4.29,2.28,7.93,2.28h8.58a34.14,34.14,0,0,0,11.76-1.69,14.83,14.83,0,0,0,7.14-5.53,32.48,32.48,0,0,0,4.36-10.07h1.56v20.67Z"/><path class="cls-1" d="M623.36,1042.52a22.65,22.65,0,0,0-8.58,1.49,17,17,0,0,0-6.1,4.16,20.9,20.9,0,0,0-4,6.3,46,46,0,0,0-2.4,7.93h-1.43v-23.26h72.38v23.26h-1.42a42.78,42.78,0,0,0-2.47-7.93,22.08,22.08,0,0,0-4-6.3,17.29,17.29,0,0,0-6-4.16,22,22,0,0,0-8.58-1.49Zm7.41-2.47h12.08v72.12q0,6.24,1.24,9.17a7.91,7.91,0,0,0,4,4.22v1.17H625.57v-1.17a7.91,7.91,0,0,0,4-4.22q1.25-2.92,1.24-9.17Z"/><path class="cls-1" d="M707.05,1053.69v58.48q0,6.24,1.24,9.17a7.91,7.91,0,0,0,4,4.22v1.17H689.77v-1.17a7.91,7.91,0,0,0,4-4.22c.82-1.95,1.24-5,1.24-9.17v-58.48c0-4.24-.42-7.32-1.24-9.22a7.86,7.86,0,0,0-4-4.16v-1.17h22.48v1.17a7.86,7.86,0,0,0-4,4.16C707.46,1046.37,707.05,1049.45,707.05,1053.69Z"/><path class="cls-1" d="M741.36,1061.49a48.88,48.88,0,0,0-.78-11.11,16.11,16.11,0,0,0-2.73-6.43,12.71,12.71,0,0,0-4.42-3.64v-1.17h17.81l34.31,72.9,29-72.9h17.28v1.17a7.52,7.52,0,0,0-4,4.22q-1.17,2.92-1.17,9.16v58.48q0,6.24,1.24,9.17a7.91,7.91,0,0,0,4,4.22v1.17H809.33v-1.17a7.91,7.91,0,0,0,4-4.22c.82-1.95,1.24-5,1.24-9.17v-60.82L782.3,1128h-2.47L744.74,1054l1,49.91q.26,10.13,2.66,15c1.61,3.25,3.53,5.48,5.79,6.69v1.17H732.65v-1.17c2.26-1.13,4.18-3.4,5.79-6.82s2.44-8.39,2.53-14.88Z"/><path class="cls-1" d="M860.92,1061.49a48.88,48.88,0,0,0-.78-11.11,16.11,16.11,0,0,0-2.73-6.43,12.71,12.71,0,0,0-4.42-3.64v-1.17H870.8l34.31,72.9,29-72.9h17.28v1.17a7.52,7.52,0,0,0-4,4.22q-1.17,2.92-1.17,9.16v58.48q0,6.24,1.24,9.17a7.91,7.91,0,0,0,4,4.22v1.17H928.89v-1.17a7.91,7.91,0,0,0,4-4.22c.82-1.95,1.24-5,1.24-9.17v-60.82L901.86,1128h-2.47L864.3,1054l1,49.91q.25,10.13,2.66,15t5.79,6.69v1.17H852.21v-1.17c2.26-1.13,4.18-3.4,5.79-6.82s2.44-8.39,2.53-14.88Z"/><path class="cls-1" d="M1014.27,1128.16q-13,0-22.81-5.53a37.39,37.39,0,0,1-15.14-15.85q-5.33-10.33-5.33-24.37a48.83,48.83,0,0,1,3.06-17.35,43.06,43.06,0,0,1,8.77-14.29,40,40,0,0,1,13.71-9.62,44.81,44.81,0,0,1,17.87-3.44q13.26,0,23.07,6a40.74,40.74,0,0,1,15.14,16.11,47.89,47.89,0,0,1,5.32,22.61q0,13.65-5.58,23.91a40.84,40.84,0,0,1-15.47,16A43.85,43.85,0,0,1,1014.27,1128.16Zm.13-3.38a25.12,25.12,0,0,0,12.47-3.12,27.75,27.75,0,0,0,9.43-8.71,43.21,43.21,0,0,0,5.91-13.38,66.8,66.8,0,0,0,2.08-17.16,59.45,59.45,0,0,0-2.08-15.92,44.48,44.48,0,0,0-6-13.19,29.39,29.39,0,0,0-9.42-9,25.57,25.57,0,0,0-24.95,0,29.19,29.19,0,0,0-9.42,9,43.16,43.16,0,0,0-5.92,13.19,61.12,61.12,0,0,0-2,15.92,65.78,65.78,0,0,0,2.08,17,42.84,42.84,0,0,0,6,13.45,28.16,28.16,0,0,0,9.42,8.77A24.78,24.78,0,0,0,1014.4,1124.78Z"/><path class="cls-1" d="M1146.57,1060.45l-1.3,68.1h-2l-56.41-70.44.92,46.4q.26,9.73,2.72,14.49a15,15,0,0,0,5.85,6.56v1.17h-21.57v-1.17q3.38-1.69,5.78-6.76t2.54-14.42l.52-41.46a47.39,47.39,0,0,0-.91-11.31,20.4,20.4,0,0,0-2.93-7.08,14.83,14.83,0,0,0-4.48-4.22v-1.17h12.48l54.58,69.52-.26-48.34q-.14-8.83-2.41-13.58t-5.78-6.43v-1.17h20.66v1.17q-3.37,1.68-5.58,6.56T1146.57,1060.45Z"/><path class="cls-1" d="M1172.69,1102.17q3.9,11.57,10.46,17t13.45,5.52a18.41,18.41,0,0,0,9.23-2.08,13.25,13.25,0,0,0,5.39-5.52,17.11,17.11,0,0,0-1.3-17.29,31.47,31.47,0,0,0-7.86-7.08q-4.82-3.12-10.2-6a88.1,88.1,0,0,1-10.21-6.3,29.9,29.9,0,0,1-7.86-8.25,21.61,21.61,0,0,1-3-11.83,20.36,20.36,0,0,1,3.44-11.63,23.06,23.06,0,0,1,9.42-8,31.24,31.24,0,0,1,13.65-2.86,47.48,47.48,0,0,1,13.64,1.69,39,39,0,0,1,9.36,4v18.71h-1.43a36.61,36.61,0,0,0-5.59-12,22.84,22.84,0,0,0-7.86-6.88,19.37,19.37,0,0,0-8.9-2.21q-7,0-11,4.09a13.73,13.73,0,0,0-4,9.94,16.13,16.13,0,0,0,3.06,9.94,30.3,30.3,0,0,0,7.8,7.22,117.07,117.07,0,0,0,10.2,6,82.92,82.92,0,0,1,10.2,6.31,30.44,30.44,0,0,1,7.8,8.18,20.88,20.88,0,0,1,3.05,11.51,22.39,22.39,0,0,1-3.31,12.08A23.71,23.71,0,0,1,1211,1125a30,30,0,0,1-14.23,3.19,45.28,45.28,0,0,1-15.14-2.21,93.35,93.35,0,0,1-10.33-4.29v-19.49Z"/><path class="cls-1" d="M1255.15,1102.13v-38.2h27.24v4.76h-22v12.73h19.79v4.42h-19.79v16.29Z"/><path class="cls-1" d="M1292.2,1083a18.45,18.45,0,0,1,5.71-13.77,20.57,20.57,0,0,1,28.13,0,18.5,18.5,0,0,1,5.68,13.77,18.88,18.88,0,0,1-2.64,9.83,18.6,18.6,0,0,1-7.17,6.94,20.93,20.93,0,0,1-19.84,0,19,19,0,0,1-9.87-16.77Zm34.13,0a14.32,14.32,0,0,0-4.16-10.39,13.74,13.74,0,0,0-10.18-4.24,13.91,13.91,0,0,0-10.27,4.24,15,15,0,0,0,0,20.74,13.93,13.93,0,0,0,10.27,4.22,13.77,13.77,0,0,0,10.15-4.22A14.13,14.13,0,0,0,1326.33,1083Z"/><path class="cls-1" d="M1343.76,1090.08v-26.15H1349v26.15a7.09,7.09,0,0,0,2.55,5.74,9.79,9.79,0,0,0,6.46,2.12,9.56,9.56,0,0,0,6.36-2.12,7.1,7.1,0,0,0,2.53-5.74v-26.15h5.22v26.15a10.91,10.91,0,0,1-4,9,15.44,15.44,0,0,1-10.09,3.27,15.64,15.64,0,0,1-10.18-3.27A10.88,10.88,0,0,1,1343.76,1090.08Z"/><path class="cls-1" d="M1386,1063.93h5.22l19.78,29.36v-29.36h5.34v38.2H1411l-19.78-29.37v29.37H1386Z"/><path class="cls-1" d="M1430.54,1102.13v-38.2h13.94a19.1,19.1,0,0,1,13.85,5.5,18.33,18.33,0,0,1,5.65,13.65,18.73,18.73,0,0,1-9.75,16.58,19.9,19.9,0,0,1-9.75,2.47Zm13.59-33.44h-8.37v28.85h8.37a14.43,14.43,0,1,0,0-28.85Z"/><path class="cls-1" d="M1471.15,1102.13l14.22-38.2h6.71l14.17,38.2h-5.45l-3.38-8.84H1480l-3.27,8.84Zm25-13.48-7.4-19.22-7.46,19.22Z"/><path class="cls-1" d="M1508.6,1068.69v-4.76h28.22v4.76h-11.41v33.44h-5.22v-33.44Z"/><path class="cls-1" d="M1552.88,1102.13h-5.28v-38.2h5.28Z"/><path class="cls-1" d="M1565.32,1083a18.49,18.49,0,0,1,5.71-13.77,20.57,20.57,0,0,1,28.13,0,18.5,18.5,0,0,1,5.68,13.77,19,19,0,0,1-2.63,9.83,18.7,18.7,0,0,1-7.18,6.94,20.93,20.93,0,0,1-19.84,0,19,19,0,0,1-9.87-16.77Zm34.13,0a14.32,14.32,0,0,0-4.16-10.39,13.72,13.72,0,0,0-10.18-4.24,13.88,13.88,0,0,0-10.26,4.24,14.93,14.93,0,0,0,0,20.74,14.45,14.45,0,0,0,20.41,0A14.13,14.13,0,0,0,1599.45,1083Z"/><path class="cls-1" d="M1617.29,1063.93h5.22l19.79,29.36v-29.36h5.33v38.2h-5.33l-19.79-29.37v29.37h-5.22Z"/><path class="cls-1" d="M600.88,865.11v-4.76H629.1v4.76H617.68v33.44h-5.22V865.11Z"/><path class="cls-1" d="M664.37,877.16V860.35h5.22v38.2h-5.22V881.8H645.21v16.75h-5.33v-38.2h5.33v16.81Z"/><path class="cls-1" d="M683.81,898.55v-38.2h27.82v4.76H689.09v11.24h20.48v4.42H689.09V894h23v4.59Z"/><path class="cls-2" d="M567.42,1019.82l-3,38.52c-12.93,21.14-34.88,36.56-69,36.56-51.33-.25-87.65-35.35-87.65-89.58,0-53.26,35.09-89.09,89.09-89.09,24.05,0,43.68,7.11,58.05,16.57l4.95,34.66h-2c-7.46-28.65-31.51-43.86-61-43.88-43.15,0-70.63,32.64-70.63,81.48,0,49.33,28,81.48,69.24,82.48,34.85-.11,64.33-17.46,69.91-67.72Z"/><path class="cls-3" d="M565,1119.07c-65.86,45.4-120.19,4.66-169.32-17.18-14.84-6.63-29.2-11.78-43.26-12l0-2.45h3.15A15.72,15.72,0,0,0,371.24,1072V920.77a15.74,15.74,0,0,0-15.73-15.43h-3.1l0-2.46h53.69l0,2.46h-3.11a15.72,15.72,0,0,0-15.72,15.43v156.9c0,6.79.22,12.93,11.8,16.86,100.22,34.85,124.19,38,164.73,22.57Z"/><path class="cls-4" d="M470.22,1052.57a15.72,15.72,0,0,0,15.71-15.24V872.18H441.21a14.63,14.63,0,0,0-14,14.61v.87h-2.47V860.35c4.6,1.94,18.95,4.41,29.56,4.46h81.1c10.6,0,25-2.52,29.55-4.46v27.31h-2.47v-.87a14.63,14.63,0,0,0-14-14.61H502v165.35a15.73,15.73,0,0,0,15.71,15h3.1l0,2.45H467.07l0-2.45Z"/></svg>